<svg preserveAspectRatio="none" width="933" height="640" viewBox="0 7 933 640" xmlns="http://www.w3.org/2000/svg"><g fill="#3CB370" fill-rule="evenodd" fill-opacity=".1"><path d="M682.096 313.507c4.192 17.124-7.86 76.938-23.235 107.068-5.842 11.453-53.255 116.624-61.44 125.58-49.617 54.283-24.048 13.4-92.955 38.51-100.42 36.596-159.347-50.543-237.385-77.83-61.088-21.352-125.11-34.645-184.214-61.413-5.963-2.703-12.115-5.47-17.76-9.432-13.957-9.8-24.832-26.906-22.194-68.395 6.45-101.288 65.995-233.715 114.25-265.02 70.48-45.728 149.174 6.537 210.89 31.45 12.62 5.097 55.814 31.497 68.41 36.66 71.3 29.256 115.766 35.745 186.82 50.035l25.5 15.482c12.432 29.91 23.525 37.295 33.314 77.305z"/><path d="M347.38 237.65c2.454-15.073 32.31-58.69 54.768-77.512 8.536-7.155 81.94-74.97 91.5-79.34 57.937-26.492 23.71-2.547 87.156.755 92.462 4.807 109.956 94.238 162.947 142.41 41.486 37.704 88.037 69.973 126.107 111.324 3.84 4.173 7.81 8.46 10.97 13.53 7.81 12.54 10.693 29.862-5.454 62.052-39.425 78.583-131.73 164.026-180.805 172.656-71.68 12.607-116.74-55.705-157.52-96.46-8.337-8.336-33.844-44.008-42.14-52.388-46.953-47.463-80.214-67.688-132.036-103.133L347.78 310.57c.21-28.06-6.137-37.702-.4-72.92z"/></g></svg>